<svg xmlns="http://www.w3.org/2000/svg" viewBox="0 0 559.88 170.08" width="163" height="51"><defs><style>.cls-1{fill:#fff;}</style></defs><title>资源 4</title><g id="图层_2" data-name="图层 2"><g id="图层_1-2" data-name="图层 1"><path class="cls-1" d="M373.22,18.33H311a8.51,8.51,0,0,0-8.52-8.52h-21a3.28,3.28,0,0,0-3.28,3.28v5.24H216a3.27,3.27,0,0,0-3.27,3.28V54.05A3.27,3.27,0,0,0,216,57.32h13.1a3.28,3.28,0,0,0,3.29-3.27V28.16H356.85V57.32h3.23A16.42,16.42,0,0,0,376.5,40.9V21.61a3.27,3.27,0,0,0-3.28-3.28"/><path class="cls-1" d="M343.74,57.22H246.16a3.26,3.26,0,0,0-3.28,3.27V83.42a3.26,3.26,0,0,0,3.28,3.27h97.58A3.27,3.27,0,0,0,347,83.42V60.49a3.27,3.27,0,0,0-3.28-3.27M327.38,76.87H262.51V67h64.87Z"/><path class="cls-1" d="M347,41.05a3.27,3.27,0,0,0-3.28-3.27H245.5a3.26,3.26,0,0,0-3.27,3.27v3.28a3.26,3.26,0,0,0,3.27,3.27h98.24A3.27,3.27,0,0,0,347,44.33Z"/><path class="cls-1" d="M366.67,96.35H222.56a3.27,3.27,0,0,0-3.27,3.27V157.2a3.27,3.27,0,0,0,3.27,3.28h131A16.38,16.38,0,0,0,370,144.11V99.62a3.27,3.27,0,0,0-3.28-3.27m-81.86,54.3H239V133.21h45.86Zm0-27.26H239V106.17h45.86Zm65.48,27.26H304.45V133.21h45.84Zm0-27.26H304.45V106.17h45.84Z"/><path class="cls-1" d="M158.52,0h-147A11.57,11.57,0,0,0,0,11.56v147a11.57,11.57,0,0,0,11.56,11.57h147a11.57,11.57,0,0,0,11.56-11.57V11.56A11.57,11.57,0,0,0,158.52,0Zm-45.1,109.62a3.82,3.82,0,0,1-3.82,3.82H88.84A3.82,3.82,0,0,1,85,109.62V88.86A3.82,3.82,0,0,1,88.84,85H109.6a3.82,3.82,0,0,1,3.82,3.82ZM141.76,53a3.8,3.8,0,0,1-3.8,3.8H77.84A21.16,21.16,0,0,0,56.68,78v60.12a3.8,3.8,0,0,1-3.8,3.8H32.08a3.8,3.8,0,0,1-3.8-3.8V70.82A42.41,42.41,0,0,1,70.69,28.41H138a3.8,3.8,0,0,1,3.8,3.8Z"/><path class="cls-1" d="M453.72,98.93c-6.07,14-18.31,44.37-18.31,44.37h17a4.86,4.86,0,0,0,4.6-3.17l19-46H461.37a8.45,8.45,0,0,0-7.65,4.77"/><path class="cls-1" d="M412.89,35.27H426A3.27,3.27,0,0,0,429.26,32V30.69A16.39,16.39,0,0,0,412.88,14.3H399.79a3.29,3.29,0,0,0-3.29,3.28v1.31a16.39,16.39,0,0,0,16.39,16.38"/><path class="cls-1" d="M433.19,150.66a8.51,8.51,0,0,1-8.51-8.51V53.59H430a3.28,3.28,0,0,0,3.28-3.28V47A3.27,3.27,0,0,0,430,43.77H399.71A3.27,3.27,0,0,0,396.44,47v3.28a3.27,3.27,0,0,0,3.28,3.27H405v88.48a8.54,8.54,0,0,1-6.21,8.26,3.32,3.32,0,0,0-2.39,3.18v7s5.63,0,5.82,0a16.4,16.4,0,0,0,12.6-6.57v0a15.92,15.92,0,0,0,12.57,6.53H551.29a8.39,8.39,0,0,0,8.4-8.39v-1.43Z"/><path class="cls-1" d="M554.47,76.8h-47V53.54h24.86s4.48,10.71,5.91,14.28A4.86,4.86,0,0,0,542.83,71h17S544.66,32.7,538.21,18.6A8.49,8.49,0,0,0,530.39,14H464.46a8.45,8.45,0,0,0-7.86,5c-6.05,14.13-21.19,52-21.19,52h17a4.9,4.9,0,0,0,4.6-3.17c1.43-3.57,5.91-14.23,5.91-14.23H487.8V76.8h-47a3.28,3.28,0,0,0-3.29,3.28v3.27a3.27,3.27,0,0,0,3.28,3.27h47v38.59h0v.05a8.48,8.48,0,0,1-6.66,8.29h0a3.27,3.27,0,0,0-2.55,3.19v6.55H499a8.47,8.47,0,0,0,8.47-8.47V86.62h47a3.26,3.26,0,0,0,3.27-3.27V80.08a3.29,3.29,0,0,0-3.27-3.28M467,43.76c2.74-6.62,6.12-14.81,8.24-19.94h45c2.13,5.13,5.46,13.33,8.19,20Z"/><path class="cls-1" d="M541.37,98.93c5.79,13.34,18.31,44.37,18.31,44.37h-17a4.87,4.87,0,0,1-4.6-3.17l-19-46h14.66a8.45,8.45,0,0,1,7.65,4.77"/></g></g></svg>